<?xml version="1.0" encoding="iso-8859-1"?>
<!-- Generator: Adobe Illustrator 19.0.0, SVG Export Plug-In . SVG Version: 6.00 Build 0)  -->
<svg version="1.1" id="Layer_1" xmlns="http://www.w3.org/2000/svg" xmlns:xlink="http://www.w3.org/1999/xlink" x="0px" y="0px"
	 viewBox="0 0 512 512" style="enable-background:new 0 0 512 512;" xml:space="preserve">
<circle style="fill:#273B7A;" cx="256" cy="256" r="256"/>
<path style="fill:#121149;" d="M309.669,506.347c107.732-22.985,190.361-113.731,201.126-225.499L394.374,162.73L349.11,279.09
	l7.144,7.144l-4.067,0.538l-18.292-18.292l-226.931,29.113l17.62,16.565l-6.399,3.2L309.669,506.347z"/>
<g>
	<rect x="118.191" y="293.581" style="fill:#FFFFFF;" width="12.798" height="23.769"/>
	<rect x="381.018" y="293.581" style="fill:#FFFFFF;" width="12.798" height="23.769"/>
</g>
<path style="fill:#FFC61B;" d="M390.309,249.708H121.689c-3.072,0-5.561-2.489-5.561-5.561v-77.631c0-3.072,2.489-5.561,5.561-5.561
	h268.621c3.072,0,5.561,2.489,5.561,5.561v77.631C395.871,247.217,393.382,249.708,390.309,249.708z"/>
<path style="fill:#EAA22F;" d="M390.309,160.954H256v88.752h134.309c3.072,0,5.561-2.489,5.561-5.561v-77.629
	C395.871,163.445,393.382,160.954,390.309,160.954z"/>
<g>
	<path style="fill:#FFEDB5;" d="M370.095,254.973H268.062c-2.119,0-3.836-1.717-3.836-3.836v-33.942
		c0-2.119,1.717-3.836,3.836-3.836h102.033c2.119,0,3.836,1.717,3.836,3.836v33.942
		C373.931,253.256,372.214,254.973,370.095,254.973z"/>
	<path style="fill:#FFEDB5;" d="M243.936,254.973H141.905c-2.119,0-3.836-1.717-3.836-3.836v-33.942
		c0-2.119,1.717-3.836,3.836-3.836h102.033c2.119,0,3.836,1.717,3.836,3.836v33.942
		C247.772,253.256,246.055,254.973,243.936,254.973z"/>
</g>
<path style="fill:#E09112;" d="M401.28,299.073H110.72c-3.072,0-5.561-2.489-5.561-5.561v-49.214c0-3.072,2.489-5.561,5.561-5.561
	H401.28c3.072,0,5.561,2.489,5.561,5.561v49.214C406.842,296.584,404.352,299.073,401.28,299.073z"/>
<path style="fill:#FF5419;" d="M401.28,238.737H256v60.337h145.28c3.072,0,5.561-2.489,5.561-5.561v-49.214
	C406.842,241.226,404.352,238.737,401.28,238.737z"/>
<g>
</g>
<g>
</g>
<g>
</g>
<g>
</g>
<g>
</g>
<g>
</g>
<g>
</g>
<g>
</g>
<g>
</g>
<g>
</g>
<g>
</g>
<g>
</g>
<g>
</g>
<g>
</g>
<g>
</g>
</svg>
