<?xml version="1.0" encoding="iso-8859-1"?>
<!-- Generator: Adobe Illustrator 19.0.0, SVG Export Plug-In . SVG Version: 6.00 Build 0)  -->
<svg version="1.1" id="Layer_1" xmlns="http://www.w3.org/2000/svg" xmlns:xlink="http://www.w3.org/1999/xlink" x="0px" y="0px"
	 viewBox="0 0 512 512" style="enable-background:new 0 0 512 512;" xml:space="preserve">
<circle style="fill:#71E2EF;" cx="256" cy="256" r="256"/>
<path style="fill:#38C6D9;" d="M276.639,511.171c110.671-8.83,201.492-88.038,227.709-192.857l-180.87-180.87l0.479,13.741
	l-63.069,2.519l37.681,37.681h-41.367l-29.777-29.777h-33.037c-0.548-0.555-0.845-0.857-0.845-0.857l-2.193,0.857h-8.759v3.425
	l-35.354,13.822c-0.15-0.172,16.144,16.119,35.354,35.33v19.265l-10.774,10.774l-41.374,6.747l-27.87,25.859l-6.177,32.611
	l4.167,16.234l3.868,13.288L276.639,511.171z"/>
<path style="fill:#386895;" d="M160.196,366.887c-38.441,0-69.715-31.273-69.715-69.715s31.273-69.715,69.715-69.715
	s69.715,31.273,69.715,69.715S198.637,366.887,160.196,366.887z M160.196,249.641c-26.21,0-47.533,21.323-47.533,47.533
	c0,26.21,21.323,47.533,47.533,47.533s47.533-21.323,47.533-47.533C207.729,270.963,186.406,249.641,160.196,249.641z"/>
<path style="fill:#273B7A;" d="M346.584,366.887c-38.441,0-69.715-31.273-69.715-69.715s31.273-69.715,69.715-69.715
	s69.715,31.273,69.715,69.715S385.026,366.887,346.584,366.887z M346.584,249.641c-26.21,0-47.533,21.323-47.533,47.533
	c0,26.21,21.323,47.533,47.533,47.533s47.533-21.323,47.533-47.533C394.118,270.963,372.795,249.641,346.584,249.641z"/>
<rect x="179.062" y="165.064" style="fill:#121149;" width="15.515" height="27.582"/>
<path style="fill:#273B7A;" d="M354.107,292.021l-26.934-148.144c-0.958-5.275-5.551-9.107-10.912-9.107h-47.533
	c-6.125,0-11.092,4.965-11.092,11.092c0,6.125,4.965,11.092,11.092,11.092h38.276l4.172,22.942H190.299
	c-4.989,0-9.364,3.331-10.692,8.14l-29.312,106.189c-0.921,3.337-0.231,6.915,1.867,9.669c2.098,2.755,5.361,4.372,8.825,4.372
	h57.832c3.044,0,5.958-1.252,8.051-3.463l89.788-94.765l15.627,85.952c0.974,5.356,5.641,9.109,10.899,9.109
	c0.657,0,1.326-0.059,1.996-0.181C351.206,303.819,355.206,298.046,354.107,292.021z M214.049,286.082h-38.493l23.188-84.006h94.899
	L214.049,286.082z"/>
<path style="fill:#121149;" d="M354.107,292.021l-26.934-148.144c-0.958-5.275-5.551-9.107-10.912-9.107h-47.533
	c-6.125,0-11.092,4.965-11.092,11.092c0,6.125,4.965,11.092,11.092,11.092h38.276l4.172,22.942h-60.347v22.181h42.815
	l-42.815,45.187v32.251l65.829-69.479l15.627,85.952c0.974,5.356,5.641,9.109,10.899,9.109c0.657,0,1.326-0.059,1.996-0.181
	C351.206,303.819,355.206,298.046,354.107,292.021z"/>
<path style="fill:#B54324;" d="M197.546,169.548h32.365c0-8.751-8.211-15.844-18.339-15.844h-49.517
	c-10.128,0-18.339,7.094-18.339,15.844c0,8.751,8.211,15.844,18.339,15.844h5.556c4.056,0,7.849-2.008,10.13-5.361l0,0
	C182.2,173.473,189.616,169.548,197.546,169.548z"/>
<g>
</g>
<g>
</g>
<g>
</g>
<g>
</g>
<g>
</g>
<g>
</g>
<g>
</g>
<g>
</g>
<g>
</g>
<g>
</g>
<g>
</g>
<g>
</g>
<g>
</g>
<g>
</g>
<g>
</g>
</svg>
