<svg viewBox="0 0 512 512" xmlns="http://www.w3.org/2000/svg"><path d="m512 256c0 141.386719-114.613281 256-256 256s-256-114.613281-256-256 114.613281-256 256-256 256 114.613281 256 256zm0 0" fill="#00e8f2"/><path d="m512 256c0-8.816406-.445312-17.527344-1.316406-26.113281l-50.472656-50.476563-209.542969-96.410156-209.542969 96.410156 89.40625 89.984375v65.871094l172.421875 172.421875c118.957031-22.050781 209.046875-126.34375 209.046875-251.6875zm0 0" fill="#00b7be"/><path d="m401.3125 181.980469h17.734375v174.824219h-17.734375zm0 0" fill="#fdc000"/><path d="m130.53125 192.535156h240.269531v142.730469h-240.269531zm0 0" fill="#57555c"/><path d="m250.671875 192.539062h120.128906v142.730469h-120.128906zm0 0" fill="#2a2a2c"/><path d="m250.667969 83-209.542969 96.410156 209.542969 89.980469 209.539062-89.980469zm0 0" fill="#78777f"/><path d="m460.210938 179.410156-89.410157 38.390625-120.128906 51.589844v-186.390625zm0 0" fill="#57555c"/><path d="m419.046875 349.625h-17.734375l-13.515625 58.273438h44.761719zm0 0" fill="#ff8900"/></svg>