<?xml version="1.0" encoding="iso-8859-1"?>
<!-- Generator: Adobe Illustrator 19.0.0, SVG Export Plug-In . SVG Version: 6.00 Build 0)  -->
<svg version="1.1" id="Capa_1" xmlns="http://www.w3.org/2000/svg" xmlns:xlink="http://www.w3.org/1999/xlink" x="0px" y="0px"
	 viewBox="0 0 512 512" style="enable-background:new 0 0 512 512;" xml:space="preserve">
<circle style="fill:#006EF5;" cx="256" cy="256" r="256"/>
<path style="fill:#0043A3;" d="M512,256c0-23.659-3.225-46.562-9.232-68.311l-80.682-81.02c-3.655-3.505-8.601-5.67-14.034-5.67
	H103.948c-11.184,0-20.335,9.15-20.335,20.335v197.498c0,5.23,2.006,10.009,5.283,13.619l78.229,77.904h-5.261V430l81.695,81.695
	C247.682,511.892,251.828,512,256,512C397.385,512,512,397.385,512,256z"/>
<rect x="196.79" y="331.89" style="fill:#FFA700;" width="118.42" height="83.31"/>
<rect x="256" y="331.89" style="fill:#FF6900;" width="59.21" height="83.31"/>
<path style="fill:#FFFFFF;" d="M408.052,339.167H103.948c-11.184,0-20.335-9.15-20.335-20.334V121.335
	c0-11.184,9.151-20.335,20.335-20.335h304.104c11.184,0,20.334,9.15,20.334,20.335v197.498
	C428.386,330.016,419.236,339.167,408.052,339.167z"/>
<path style="fill:#FFF4AA;" d="M428.39,121.33v197.5c0,11.19-9.15,20.34-20.34,20.34H256V101h152.05
	C419.24,101,428.39,110.15,428.39,121.33z"/>
<rect x="161.86" y="410.36" style="fill:#00D4D1;" width="188.27" height="19.645"/>
<rect x="256" y="410.36" style="fill:#009CA0;" width="94.14" height="19.64"/>
<rect x="100.5" y="117" style="fill:#00D4D1;" width="311" height="192"/>
<rect x="256" y="117" style="fill:#009CA0;" width="155.5" height="192"/>
<g>
</g>
<g>
</g>
<g>
</g>
<g>
</g>
<g>
</g>
<g>
</g>
<g>
</g>
<g>
</g>
<g>
</g>
<g>
</g>
<g>
</g>
<g>
</g>
<g>
</g>
<g>
</g>
<g>
</g>
</svg>
