<?xml version="1.0" encoding="iso-8859-1"?>
<!-- Generator: Adobe Illustrator 19.0.0, SVG Export Plug-In . SVG Version: 6.00 Build 0)  -->
<svg version="1.1" id="Capa_1" xmlns="http://www.w3.org/2000/svg" xmlns:xlink="http://www.w3.org/1999/xlink" x="0px" y="0px"
	 viewBox="0 0 512 512" style="enable-background:new 0 0 512 512;" xml:space="preserve">
<circle style="fill:#141FB1;" cx="256" cy="256" r="256"/>
<path style="fill:#191784;" d="M511.942,260.608l-74.275-74.275L402.95,206.76l-87.876-87.876l-198.407,147.35l85.574,85.574
	L145.667,407l104.932,104.932c1.797,0.037,3.596,0.068,5.402,0.068C395.844,512,509.481,399.865,511.942,260.608z"/>
<polygon style="fill:#FFF385;" points="149.251,250.877 116.667,266.233 74.333,186.333 145.667,126.333 148.375,126.75 "/>
<g>
	<polygon style="fill:#FFEE00;" points="74.333,186.333 116.667,266.233 132.971,258.549 89.727,173.385 	"/>
	<polygon style="fill:#FFEE00;" points="362.749,250.877 395.333,266.233 437.667,186.333 366.333,126.333 	"/>
</g>
<polygon style="fill:#FFD300;" points="437.667,186.333 395.333,266.233 379.029,258.549 422.273,173.385 "/>
<rect x="145.67" y="126.33" style="fill:#FFEE00;" width="220.67" height="280.67"/>
<rect x="255.57" y="126.33" style="fill:#FFD300;" width="110.76" height="280.67"/>
<path style="fill:#FFF385;" d="M317.072,126.333c0,33.729-27.343,61.072-61.072,61.072s-61.072-27.343-61.072-61.072H317.072z"/>
<path style="fill:#FFEE00;" d="M255.571,126.333v61.061c0.143,0.001,0.285,0.011,0.429,0.011c33.729,0,61.072-27.343,61.072-61.072
	H255.571z"/>
<path style="fill:#FFD300;" d="M303.652,126.333c0,26.318-21.335,47.652-47.652,47.652s-47.652-21.335-47.652-47.652H303.652z"/>
<path style="fill:#FFB000;" d="M255.571,126.333v47.641c0.143,0.001,0.285,0.011,0.429,0.011c26.318,0,47.652-21.335,47.652-47.652
	H255.571z"/>
<rect x="235.11" y="132.92" style="fill:#FFEE00;" width="41.783" height="14.659"/>
<rect x="255.57" y="132.92" style="fill:#FFD300;" width="21.32" height="14.659"/>
<path style="fill:#FFF385;" d="M317.072,126.333H194.928l0,0c0-8.229,6.671-14.9,14.9-14.9h92.344
	C310.401,111.434,317.072,118.104,317.072,126.333L317.072,126.333z"/>
<path style="fill:#FFEE00;" d="M302.172,111.434h-46.6v14.9h61.5C317.072,118.104,310.401,111.434,302.172,111.434z"/>
<g>
</g>
<g>
</g>
<g>
</g>
<g>
</g>
<g>
</g>
<g>
</g>
<g>
</g>
<g>
</g>
<g>
</g>
<g>
</g>
<g>
</g>
<g>
</g>
<g>
</g>
<g>
</g>
<g>
</g>
</svg>
