<?xml version="1.0"?>
<svg xmlns="http://www.w3.org/2000/svg" xmlns:xlink="http://www.w3.org/1999/xlink" version="1.1" id="Capa_1" x="0px" y="0px" viewBox="0 0 512 512" style="enable-background:new 0 0 512 512;" xml:space="preserve" width="512px" height="512px"><g><circle style="fill:#FFE670;" cx="256" cy="256" r="256" data-original="#FFE670"/><path style="fill:#FEC000;" d="M511.517,271.544l-77.689-77.689L256,58.958L78.173,193.855l24.469,32.257l25.948,26.513v118.553  H95.334v37.489l94.749,94.749C211.117,509.005,233.207,512,256,512C392.164,512,503.479,405.689,511.517,271.544z" data-original="#FEC000"/><polygon style="fill:#FFFFFF;" points="383.411,374.829 128.589,374.829 128.589,203.114 256,106.463 383.411,203.114 " data-original="#FFFFFF"/><polygon style="fill:#9CFDFF;" points="383.41,203.11 383.41,374.83 256,374.83 256,106.46 " data-original="#9CFDFF"/><rect x="216.89" y="256.12" style="fill:#0088FF;" width="78.23" height="118.7" data-original="#0088FF"/><rect x="256" y="256.12" style="fill:#004EB1;" width="39.11" height="118.71" data-original="#004EB1"/><rect x="95.33" y="371.18" style="fill:#00E8F2;" width="321.33" height="37.489" data-original="#00E8F2"/><rect x="256" y="371.18" style="fill:#00B7BE;" width="160.67" height="37.49" data-original="#00B7BE"/><polygon style="fill:#E02424;" points="409.358,226.112 256,109.777 102.642,226.112 78.173,193.855 256,58.958 433.827,193.855 " data-original="#E02424"/><polygon style="fill:#990011" points="433.83,193.86 409.36,226.11 383.41,206.43 256,109.78 256,58.96 " data-original="#990011" class="active-path"/></g> </svg>
