<?xml version="1.0" encoding="iso-8859-1"?>
<!-- Generator: Adobe Illustrator 19.0.0, SVG Export Plug-In . SVG Version: 6.00 Build 0)  -->
<svg version="1.1" id="Layer_1" xmlns="http://www.w3.org/2000/svg" xmlns:xlink="http://www.w3.org/1999/xlink" x="0px" y="0px"
	 viewBox="0 0 460 460" style="enable-background:new 0 0 460 460;" xml:space="preserve">
<g>
	<path style="fill:#FF0F27;" d="M230,0C102.974,0,0,102.975,0,230c0,107.766,74.116,198.221,174.155,223.173l279.018-279.018
		C428.221,74.116,337.766,0,230,0z"/>
	<path style="fill:#C2001B;" d="M460,230c0-19.26-2.381-37.962-6.841-55.841L339,60L121,400l53.159,53.159
		C192.038,457.619,210.74,460,230,460C357.025,460,460,357.025,460,230z"/>
	<polygon style="fill:#71E2F0;" points="214.429,75.652 339,80 339,330 230,337.826 	"/>
	<polygon style="fill:#C2FBFF;" points="230,337.826 121,330 121,80 230,75.652 	"/>
	<polygon style="fill:#61A2B3;" points="230,400 206.643,365 230,330 339,330 339,400 	"/>
	<rect x="121" y="330" style="fill:#71E2F0;" width="109" height="70"/>
	<polygon style="fill:#61A2B3;" points="230,60 339,60 339,80 230,80 214.429,70 	"/>
	<circle style="fill:#FFFFFF;" cx="230" cy="365" r="15"/>
	<rect x="121" y="60" style="fill:#71E2F0;" width="109" height="20"/>
	<rect x="141" y="100" style="fill:#FFFFFF;" width="89" height="210"/>
	<rect x="230" y="100" style="fill:#C2FBFF;" width="89" height="210"/>
</g>
<g>
</g>
<g>
</g>
<g>
</g>
<g>
</g>
<g>
</g>
<g>
</g>
<g>
</g>
<g>
</g>
<g>
</g>
<g>
</g>
<g>
</g>
<g>
</g>
<g>
</g>
<g>
</g>
<g>
</g>
</svg>
