<?xml version="1.0" encoding="iso-8859-1"?>
<!-- Generator: Adobe Illustrator 19.0.0, SVG Export Plug-In . SVG Version: 6.00 Build 0)  -->
<svg version="1.1" id="Capa_1" xmlns="http://www.w3.org/2000/svg" xmlns:xlink="http://www.w3.org/1999/xlink" x="0px" y="0px"
	 viewBox="0 0 512 512" style="enable-background:new 0 0 512 512;" xml:space="preserve">
<circle style="fill:#FE9A35;" cx="256" cy="256" r="256"/>
<path style="fill:#FF7C11;" d="M389.715,280.508L221.694,112.486l-5.502,25.692l-38.435-38.435l-18.808,39.477l24.967,24.967
	l-3.257,3.331l-48.544-48.469l-21.853,35.344l42.081,42.081l-7.95,8.13l-51.402-51.402L77,195.226l38.708,38.708L96.36,253.719
	l244.027,244.027c69.401-24.225,125.172-77.479,152.771-145.223L396.635,256L389.715,280.508z"/>
<path style="fill:#854830;" d="M242.949,240.05c0,34.467-33.57,9.429-74.98,9.429s-74.98,25.039-74.98-9.429
	s33.57-82.164,74.98-82.164S242.949,205.582,242.949,240.05z"/>
<path style="fill:#663022;" d="M167.969,157.886c-0.236,0-0.471,0.01-0.707,0.013v91.586c0.236-0.001,0.471-0.006,0.707-0.006
	c41.41,0,74.98,25.039,74.98-9.429S209.379,157.886,167.969,157.886z"/>
<ellipse style="fill:#854830;" cx="167.97" cy="119.05" rx="15.939" ry="24.47"/>
<g>
	<path style="fill:#663022;" d="M167.969,94.579c-0.237,0-0.473,0.012-0.707,0.028v48.884c0.235,0.016,0.47,0.027,0.707,0.027
		c8.803,0,15.939-10.956,15.939-24.47S176.772,94.579,167.969,94.579z"/>
	<ellipse style="fill:#663022;" cx="215.79" cy="135.21" rx="15.939" ry="24.47"/>
</g>
<ellipse style="fill:#854830;" cx="120.15" cy="135.21" rx="15.939" ry="24.47"/>
<ellipse style="fill:#663022;" cx="252.38" cy="172.93" rx="15.939" ry="24.47"/>
<g>
	<ellipse style="fill:#854830;" cx="83.56" cy="172.93" rx="15.939" ry="24.47"/>
	<path style="fill:#854830;" d="M414.461,380.663c0,34.467-33.57,9.429-74.98,9.429s-74.98,25.039-74.98-9.429
		s33.57-82.164,74.98-82.164S414.461,346.196,414.461,380.663z"/>
</g>
<path style="fill:#663022;" d="M339.48,298.499c-0.264,0-0.526,0.01-0.79,0.014v91.585c0.264-0.002,0.526-0.007,0.79-0.007
	c41.41,0,74.98,25.039,74.98-9.428C414.46,346.195,380.891,298.499,339.48,298.499z"/>
<ellipse style="fill:#854830;" cx="339.48" cy="259.66" rx="15.939" ry="24.47"/>
<g>
	<path style="fill:#663022;" d="M339.48,235.192c-0.265,0-0.528,0.011-0.79,0.031V284.1c0.262,0.02,0.525,0.031,0.79,0.031
		c8.803,0,15.939-10.955,15.939-24.469S348.283,235.192,339.48,235.192z"/>
	<ellipse style="fill:#663022;" cx="387.3" cy="275.82" rx="15.939" ry="24.47"/>
</g>
<ellipse style="fill:#854830;" cx="291.66" cy="275.82" rx="15.939" ry="24.47"/>
<ellipse style="fill:#663022;" cx="423.89" cy="313.54" rx="15.939" ry="24.47"/>
<ellipse style="fill:#854830;" cx="255.07" cy="313.54" rx="15.939" ry="24.47"/>
<g>
</g>
<g>
</g>
<g>
</g>
<g>
</g>
<g>
</g>
<g>
</g>
<g>
</g>
<g>
</g>
<g>
</g>
<g>
</g>
<g>
</g>
<g>
</g>
<g>
</g>
<g>
</g>
<g>
</g>
</svg>
