<?xml version="1.0" encoding="iso-8859-1"?>
<!-- Generator: Adobe Illustrator 19.0.0, SVG Export Plug-In . SVG Version: 6.00 Build 0)  -->
<svg version="1.1" id="Layer_1" xmlns="http://www.w3.org/2000/svg" xmlns:xlink="http://www.w3.org/1999/xlink" x="0px" y="0px"
	 viewBox="0 0 512 512" style="enable-background:new 0 0 512 512;" xml:space="preserve">
<circle style="fill:#324A5E;" cx="256" cy="256" r="256"/>
<path style="fill:#2B3B4E;" d="M504.248,318.723l-89.747-89.747l-9.483,12.06L274.499,110.518L162.861,230.767l-74.4,106.946
	l174.201,174.201C379.459,508.931,476.794,427.716,504.248,318.723z"/>
<g>
	<path style="fill:#FFD15D;" d="M342.299,241.721c-2.053,0-4.055-1.048-5.185-2.939l-68.846-115.169l-91.286,98.338
		c-2.265,2.443-6.084,2.586-8.526,0.317c-2.443-2.267-2.584-6.084-0.317-8.526l96.758-104.234c1.293-1.391,3.179-2.089,5.053-1.896
		c1.889,0.198,3.574,1.276,4.549,2.905l72.973,122.075c1.71,2.86,0.777,6.565-2.082,8.275
		C344.419,241.445,343.352,241.721,342.299,241.721z"/>
	<path style="fill:#FFD15D;" d="M347.472,232.591l-72.973-122.075c-0.936-1.564-2.532-2.598-4.329-2.855l-1.822,16.086
		l68.765,115.036c1.131,1.891,3.132,2.939,5.185,2.939c1.053,0,2.12-0.276,3.089-0.855
		C348.25,239.156,349.182,235.451,347.472,232.591z"/>
</g>
<rect x="95.046" y="212.219" transform="matrix(-0.9945 -0.1045 0.1045 -0.9945 471.9883 591.386)" style="fill:#B5F1F4;" width="312.881" height="142.219"/>
<polygon style="fill:#84DBFF;" points="414.501,228.976 258.289,212.558 242.281,353.88 399.634,370.419 "/>
<g>
	<path style="fill:#2B9ED8;" d="M242.426,233.424l-42.434-4.46c-1.595-0.167-3.184,0.305-4.427,1.312s-2.036,2.467-2.203,4.058
		l-8.919,84.866c-0.348,3.313,2.057,6.284,5.37,6.632l42.432,4.46c0.215,0.022,0.428,0.034,0.638,0.034
		c3.05,0,5.668-2.303,5.994-5.404c0.348-3.313-2.057-6.284-5.37-6.632l-36.431-3.829l3.198-30.43l36.431,3.829
		c0.215,0.022,0.428,0.034,0.638,0.034c3.05,0,5.668-2.303,5.994-5.404c0.348-3.313-2.057-6.284-5.37-6.632l-36.431-3.829
		l3.198-30.432l36.433,3.831c3.296,0.334,6.284-2.055,6.632-5.37C248.146,236.742,245.741,233.772,242.426,233.424z"/>
	<path style="fill:#2B9ED8;" d="M168.896,233.756c-4.601-5.68-11.138-9.23-18.408-9.995l-21.216-2.229
		c-3.315-0.331-6.284,2.055-6.632,5.37l-8.919,84.866c-0.348,3.313,2.057,6.284,5.37,6.632c0.214,0.022,0.428,0.034,0.638,0.034
		c3.05,0,5.668-2.303,5.994-5.404l3.829-36.431l8.639,0.909l16.205,41.331c0.933,2.379,3.208,3.832,5.618,3.832
		c0.733,0,1.477-0.134,2.201-0.419c3.101-1.217,4.63-4.717,3.413-7.82l-14.252-36.355c4.896-0.669,9.535-2.639,13.474-5.827
		c5.68-4.601,9.23-11.138,9.995-18.408C175.609,246.569,173.497,239.437,168.896,233.756z M162.844,252.578
		c-0.428,4.063-2.412,7.72-5.587,10.29c-3.174,2.572-7.158,3.756-11.228,3.325l-15.215-1.6l3.198-30.43l15.215,1.6
		c4.063,0.428,7.72,2.412,10.29,5.587C162.09,244.526,163.271,248.513,162.844,252.578z"/>
</g>
<g>
	<path style="fill:#2498C6;" d="M313.147,240.857c-3.303-0.357-6.284,2.055-6.632,5.37l-6.249,59.447l-24.535-65.396
		c-0.983-2.62-3.634-4.22-6.415-3.865c-2.775,0.355-4.942,2.572-5.236,5.354l-8.919,84.866c-0.348,3.313,2.057,6.284,5.37,6.632
		c3.306,0.336,6.284-2.055,6.632-5.37l6.249-59.447l24.535,65.396c0.891,2.377,3.16,3.915,5.646,3.915
		c0.253,0,0.51-0.016,0.769-0.048c2.775-0.355,4.942-2.572,5.236-5.354l8.919-84.866
		C318.867,244.174,316.463,241.205,313.147,240.857z"/>
	<path style="fill:#2498C6;" d="M388.37,248.763l-51.434-5.406c-3.294-0.336-6.284,2.055-6.632,5.37
		c-0.348,3.313,2.057,6.284,5.37,6.632l19.716,2.072l-8.289,78.865c-0.348,3.313,2.057,6.284,5.37,6.632
		c0.214,0.022,0.428,0.034,0.638,0.034c3.05,0,5.668-2.303,5.994-5.404l8.289-78.865l19.716,2.072
		c0.214,0.022,0.428,0.034,0.638,0.034c3.05,0,5.668-2.303,5.994-5.404C394.09,252.082,391.685,249.111,388.37,248.763z"/>
</g>
<g>
</g>
<g>
</g>
<g>
</g>
<g>
</g>
<g>
</g>
<g>
</g>
<g>
</g>
<g>
</g>
<g>
</g>
<g>
</g>
<g>
</g>
<g>
</g>
<g>
</g>
<g>
</g>
<g>
</g>
</svg>
