<?xml version="1.0" encoding="iso-8859-1"?>
<!-- Generator: Adobe Illustrator 19.0.0, SVG Export Plug-In . SVG Version: 6.00 Build 0)  -->
<svg version="1.1" id="Capa_1" xmlns="http://www.w3.org/2000/svg" xmlns:xlink="http://www.w3.org/1999/xlink" x="0px" y="0px"
	 viewBox="0 0 512 512" style="enable-background:new 0 0 512 512;" xml:space="preserve">
<circle style="fill:#29D371;" cx="256" cy="256" r="256"/>
<path style="fill:#0CBF55;" d="M512,256c0-5.902-0.218-11.752-0.611-17.554L410.121,137.178l-30.179,24.804L280.96,63L63,280.961
	l98.877,98.877l-24.699,30.284l101.267,101.267C244.248,511.782,250.098,512,256,512C397.385,512,512,397.385,512,256z"/>
<circle style="fill:#E2F1FC;" cx="256" cy="256" r="94.96"/>
<path style="fill:#BADDFA;" d="M256,161.04c-0.016,0-0.032,0.001-0.048,0.001V350.96c0.016,0,0.032,0.001,0.048,0.001
	c52.445,0,94.96-42.515,94.96-94.96C350.96,203.555,308.445,161.04,256,161.04z"/>
<circle style="fill:#FE6F00;" cx="256" cy="217.82" r="16.685"/>
<path style="fill:#D35905;" d="M256,201.136c-0.016,0-0.031,0.002-0.048,0.002v33.365c0.016,0,0.031,0.002,0.048,0.002
	c9.215,0,16.685-7.47,16.685-16.685C272.685,208.606,265.215,201.136,256,201.136z"/>
<rect x="242.76" y="241.13" style="fill:#FE6F00;" width="26.484" height="69.74"/>
<rect x="255.95" y="241.13" style="fill:#D35905;" width="13.289" height="69.74"/>
<path style="fill:#1E499E;" d="M449,280.96v-49.922l-53.288-7.41c-3.609-15.639-9.785-30.293-18.046-43.511l32.455-42.94l-35.3-35.3
	l-42.94,32.456c-13.217-8.261-27.872-14.436-43.511-18.045L280.96,63h-49.922l-7.41,53.288c-15.639,3.609-30.293,9.785-43.51,18.046
	l-42.94-32.455l-35.3,35.3l32.456,42.94c-8.261,13.217-14.436,27.871-18.045,43.51L63,231.039v49.922l53.288,7.41
	c3.609,15.638,9.785,30.293,18.045,43.51l-32.456,42.94l35.3,35.301l42.94-32.456c13.217,8.261,27.872,14.437,43.511,18.046
	l7.41,53.288h49.922l7.41-53.288c15.639-3.609,30.293-9.784,43.51-18.045l42.94,32.455l35.301-35.3l-32.456-42.94
	c8.261-13.217,14.437-27.872,18.045-43.511L449,280.96z M256,337.101c-44.791,0-81.101-36.31-81.101-81.101
	s36.31-81.101,81.101-81.101s81.101,36.31,81.101,81.101S300.791,337.101,256,337.101z"/>
<path style="fill:#0E387C;" d="M449,280.96v-49.922l-53.288-7.41c-3.609-15.639-9.785-30.293-18.046-43.511l32.455-42.94l-35.3-35.3
	l-42.94,32.456c-13.217-8.261-27.872-14.436-43.51-18.045L280.96,63h-25.008v111.9c0.016,0,0.031-0.001,0.047-0.001
	c44.791,0,81.101,36.31,81.101,81.101s-36.31,81.101-81.101,81.101c-0.016,0-0.031-0.001-0.047-0.001V449h25.009l7.41-53.288
	c15.639-3.609,30.293-9.784,43.51-18.045l42.94,32.455l35.301-35.3l-32.456-42.94c8.261-13.217,14.437-27.872,18.045-43.511
	L449,280.96z"/>
<g>
</g>
<g>
</g>
<g>
</g>
<g>
</g>
<g>
</g>
<g>
</g>
<g>
</g>
<g>
</g>
<g>
</g>
<g>
</g>
<g>
</g>
<g>
</g>
<g>
</g>
<g>
</g>
<g>
</g>
</svg>
